<svg xmlns="http://www.w3.org/2000/svg" width="800" height="450" viewBox="0 0 800 450">
  <defs>
    <linearGradient id="bg" x1="0" y1="0" x2="0" y2="1">
      <stop offset="0%" stop-color="#2b3340"/>
      <stop offset="100%" stop-color="#11161f"/>
    </linearGradient>
    <linearGradient id="ground" x1="0" y1="0" x2="1" y2="0">
      <stop offset="0%" stop-color="#2f3d4d"/>
      <stop offset="100%" stop-color="#1f2a37"/>
    </linearGradient>
  </defs>

  <rect width="800" height="450" fill="url(#bg)"/>
  <rect x="0" y="300" width="800" height="150" fill="url(#ground)"/>

  <rect x="35" y="35" width="30" height="14" rx="7" fill="#ef4444"/>
  <text x="72" y="46" fill="#d1d5db" font-family="Arial, sans-serif" font-size="14" font-weight="700">REC</text>
  <text x="640" y="46" fill="#d1d5db" font-family="Arial, sans-serif" font-size="13">CAM 01 - EXTERIOR</text>

  <rect x="70" y="90" width="120" height="155" rx="10" fill="#0b1220" fill-opacity="0.25" stroke="#3b82f6" stroke-width="3"/>
  <text x="84" y="110" fill="#60a5fa" font-family="Arial, sans-serif" font-size="16" font-weight="700">HUMANO</text>
  <text x="84" y="128" fill="#93c5fd" font-family="Arial, sans-serif" font-size="12">98% confianza</text>

  <g transform="translate(108,120)">
    <circle cx="20" cy="18" r="12" fill="#e5e7eb"/>
    <rect x="13" y="30" width="14" height="34" rx="6" fill="#e5e7eb"/>
    <rect x="1" y="38" width="12" height="8" rx="4" fill="#d1d5db"/>
    <rect x="27" y="38" width="12" height="8" rx="4" fill="#d1d5db"/>
    <rect x="8" y="62" width="10" height="28" rx="5" fill="#d1d5db" transform="rotate(10 13 76)"/>
    <rect x="22" y="62" width="10" height="28" rx="5" fill="#d1d5db" transform="rotate(-18 27 76)"/>
  </g>

  <rect x="35" y="398" width="230" height="35" rx="10" fill="#000000" fill-opacity="0.45"/>
  <text x="50" y="421" fill="#f3f4f6" font-family="Arial, sans-serif" font-size="24" font-weight="700">Cam 01 - Exterior</text>

  <line x1="0" y1="297" x2="800" y2="297" stroke="#374151" stroke-width="2"/>
  <circle cx="530" cy="180" r="65" fill="#94a3b8" fill-opacity="0.08"/>
  <circle cx="620" cy="210" r="45" fill="#94a3b8" fill-opacity="0.06"/>

  <text x="612" y="418" fill="#9ca3af" font-family="Arial, sans-serif" font-size="16">22:48:13</text>
</svg>
